<?xml version="1.0" encoding="utf-8"?>
<!-- Generator: Adobe Illustrator 28.1.0, SVG Export Plug-In . SVG Version: 6.00 Build 0)  -->
<svg version="1.1" id="Livello_1" xmlns="http://www.w3.org/2000/svg" xmlns:xlink="http://www.w3.org/1999/xlink" x="0px" y="0px"
	 viewBox="0 0 1080 1080" style="enable-background:new 0 0 1080 1080;" xml:space="preserve">
<style type="text/css">
	.st0{fill:#003D5C;}
	.st1{fill:#FCF3E4;}
	.st2{fill:#C3BFD8;}
	.st3{fill:#718C69;}
	.st4{fill:#F4A258;}
	.st5{font-family:'AcworthBold';}
	.st6{font-size:106.4492px;}
	.st7{font-size:39.3475px;}
</style>
<rect y="-228.75" class="st0" width="101.25" height="210"/>
<rect x="110" y="-228.75" class="st1" width="101.25" height="210"/>
<rect x="220" y="-228.75" class="st2" width="101.25" height="210"/>
<rect x="330" y="-228.75" class="st3" width="101.25" height="210"/>
<rect x="440" y="-228.75" class="st4" width="101.25" height="210"/>
<g>
	<text transform="matrix(1 0 0 1 248.5466 659.9752)" class="st0 st5 st6">SKYSENSE</text>
	<text transform="matrix(1 0 0 1 380.5076 701.9325)" class="st4 st5 st7">SKY ON SCREEN</text>
	<g id="CYf1Ho_00000061436344506445571740000008330631382666116537_">
		<g>
			<path class="st0" d="M437.86,484.13c0.99-4.13,1.96-8.24,3.93-12.07c3.11-6.04,7.4-11,13.09-14.69c1.43-0.93,1.96-1.96,2.09-3.69
				c0.95-13.36,5.84-25.09,14.92-35.02c7.93-8.68,17.6-14.48,29.03-17.16c15.38-3.61,29.92-1.34,43.46,6.84
				c1.39,0.84,2.21,0.88,3.6-0.17c11.67-8.84,24.57-10.91,38.12-5.44c13.47,5.44,21.32,15.78,23.69,30.17
				c0.55,3.37,0.52,6.74,0.11,10.12c-0.07,0.62-0.08,1.19,0.25,1.73c1.3,2.16,2.48,4.39,3.44,6.73c0.35,0.85,1.18,1,1.92,1.27
				c14.11,5.02,22.84,14.84,25.9,29.5c4.37,20.94-11,42.31-32.23,45.1c-4.18,0.55-8.35,0.32-12.53,0.35
				c-7.64,0.06-15.27,0.02-22.91,0c-0.54,0-1.34,0.31-1.56-0.43c-0.16-0.54,0.48-0.89,0.84-1.25c3.37-3.39,6.78-6.74,10.13-10.16
				c0.86-0.88,1.8-1.18,3.01-1.2c6.5-0.1,13.01,0.28,19.51-0.24c12.47-0.99,22.2-10.72,23.07-23.13
				c0.92-13.08-7.46-24.47-20.35-26.59c-4.09-0.67-5.32-2.18-6.31-5.93c-2.95-11.19-13.12-19.09-24.67-20.06
				c-6.76-0.57-12.87,1.06-18.46,4.85c-1.87,1.27-1.98,1.22-2.72-0.85c-6.1-17.08-21.36-28.43-39.33-29.52
				c-22.06-1.34-41.63,13.84-46.07,35.58c-0.95,4.63-1.06,9.36-0.5,14.06c0.17,1.44-0.35,1.98-1.62,2.41
				c-9.34,3.11-15.27,9.5-17.28,19.11c-3.2,15.25,8.02,28.85,22.03,29.99c9.87,0.8,19.78,0.18,29.67,0.33
				c2.56,0.04,2.59,0.06,1.66,2.4c-1.18,2.96-2.4,5.91-3.53,8.88c-0.46,1.19-1.09,1.79-2.48,1.78c-8.43-0.07-16.9,0.41-25.29-0.17
				c-14.1-0.97-24.57-8.08-31.41-20.47c-2.24-4.06-3.4-8.47-4.2-13C437.86,490.77,437.86,487.45,437.86,484.13z M595.44,429.78
				c-0.13-0.37-0.25-0.75-0.4-1.12c-0.99-2.49-2.4-4.72-4.13-6.76c-8-9.46-22.56-11.62-32.69-4.91c-1.25,0.83-1.69,1.45-0.45,2.71
				c1.62,1.66,3.09,3.49,4.24,5.52c0.84,1.48,1.81,1.67,3.41,1.29c9.66-2.28,18.97-1.15,27.89,3.18c0.48,0.23,0.94,0.49,1.44,0.68
				C595.23,430.54,595.5,430.34,595.44,429.78z"/>
			<path class="st4" d="M520.69,558.86c1.54-5.4,3.09-10.81,4.63-16.21c1.22-4.27,2.38-8.57,3.69-12.81c0.55-1.78,0.02-2.2-1.7-2.15
				c-3.65,0.09-7.3-0.02-10.95,0.05c-1.58,0.03-2.2-0.31-1.53-2.02c5.39-13.78,10.74-27.57,16.05-41.38
				c0.47-1.21,1.19-1.55,2.41-1.55c7.9,0.04,15.8,0.01,23.7,0.02c2.13,0,2.24,0.18,1.28,2.13c-4.47,9.12-8.95,18.23-13.42,27.34
				c-1.15,2.35-1.14,2.39,1.44,2.39c5.71,0.01,11.42,0,17.12,0.01c0.52,0,1.23-0.21,1.49,0.27c0.36,0.67-0.4,1.03-0.79,1.42
				c-13.93,13.95-27.87,27.89-41.82,41.82c-0.36,0.36-0.79,0.64-1.19,0.96C520.97,559.05,520.83,558.95,520.69,558.86z"/>
			<path class="st0" d="M616.66,386.74c2.85-0.05,4.81,1.16,5.98,3.49c1.16,2.31,1.13,4.76-0.52,6.76
				c-3.13,3.79-6.62,7.26-10.37,10.43c-2.61,2.2-6.15,1.83-8.51-0.5c-2.42-2.38-2.81-5.98-0.54-8.66
				c3.13-3.69,6.62-7.06,10.26-10.26C614.04,387.04,615.4,386.7,616.66,386.74z"/>
			<path class="st0" d="M578.26,380.93c0,2.19,0.06,4.38-0.01,6.56c-0.12,3.71-2.89,6.32-6.56,6.3c-3.58-0.02-6.34-2.61-6.41-6.22
				c-0.09-4.44-0.09-8.88,0-13.32c0.07-3.61,2.84-6.19,6.42-6.22c3.52-0.02,6.4,2.62,6.54,6.14
				C578.34,376.42,578.26,378.68,578.26,380.93z"/>
			<path class="st0" d="M629.05,444.81c-2.19,0-4.38,0.06-6.56-0.01c-3.62-0.13-6.2-2.83-6.22-6.41c-0.02-3.52,2.61-6.46,6.12-6.55
				c4.5-0.11,9.01-0.11,13.52,0c3.52,0.09,6.14,3.02,6.12,6.54c-0.02,3.58-2.6,6.29-6.22,6.42
				C633.56,444.88,631.31,444.81,629.05,444.81z"/>
		</g>
	</g>
</g>
</svg>
